<svg xmlns="http://www.w3.org/2000/svg" xmlns:xlink="http://www.w3.org/1999/xlink" width="12.449" height="12.389" viewBox="0 0 12.449 12.389">
  <defs>
    <clipPath id="clip-path">
      <rect id="Rectangle_688" data-name="Rectangle 688" width="12.449" height="12.389" fill="#fff"/>
    </clipPath>
  </defs>
  <g id="Group_1650" data-name="Group 1650" clip-path="url(#clip-path)">
    <path id="Path_1362" data-name="Path 1362" d="M6.4,12.389A6.336,6.336,0,0,1,.016,5.635,6.333,6.333,0,0,1,4.584.029a.433.433,0,0,1,.522.143.432.432,0,0,1-.06.555,4.673,4.673,0,0,0,6.5,6.587c.09-.069.174-.175.274-.193a.848.848,0,0,1,.474.022c.158.071.173.254.132.428a6.3,6.3,0,0,1-5.308,4.754c-.281.036-.564.05-.718.063" transform="translate(0 0)" fill="#fff"/>
  </g>
</svg>
