<svg id="Group_1637" data-name="Group 1637" xmlns="http://www.w3.org/2000/svg" xmlns:xlink="http://www.w3.org/1999/xlink" width="21.469" height="21.469" viewBox="0 0 21.469 21.469">
  <defs>
    <clipPath id="clip-path">
      <rect id="Rectangle_661" data-name="Rectangle 661" width="21.469" height="21.469" fill="#fff"/>
    </clipPath>
  </defs>
  <g id="Group_1585" data-name="Group 1585" clip-path="url(#clip-path)">
    <path id="Path_1346" data-name="Path 1346" d="M9.656,11.813h-8.3a2.619,2.619,0,0,1-.459-.023A1.07,1.07,0,0,1,.9,9.677a2.787,2.787,0,0,1,.46-.02H9.656V9.12q0-3.879,0-7.757a2.556,2.556,0,0,1,.029-.5A1.067,1.067,0,0,1,11.779.854a2.469,2.469,0,0,1,.032.5q0,3.879,0,7.757v.545h.526q3.9,0,7.8,0a2.169,2.169,0,0,1,.579.062,1.059,1.059,0,0,1-.012,2.031,2.26,2.26,0,0,1-.579.059q-3.879.005-7.757,0h-.555v.515q0,3.9,0,7.8a2.269,2.269,0,0,1-.048.539,1.061,1.061,0,0,1-2.056.008,2.224,2.224,0,0,1-.049-.539q0-3.879,0-7.757v-.565" transform="translate(0 0)" fill="#fff"/>
  </g>
</svg>
