<svg id="Group_1778" data-name="Group 1778" xmlns="http://www.w3.org/2000/svg" xmlns:xlink="http://www.w3.org/1999/xlink" width="23.193" height="21.909" viewBox="0 0 23.193 21.909">
  <defs>
    <clipPath id="clip-path">
      <rect id="Rectangle_743" data-name="Rectangle 743" width="23.193" height="21.909" fill="#f04d4d"/>
    </clipPath>
  </defs>
  <g id="Group_1777" data-name="Group 1777" clip-path="url(#clip-path)">
    <path id="Path_1408" data-name="Path 1408" d="M11.592,21.9c-2.706,0-5.412.009-8.118,0A3.377,3.377,0,0,1,.007,18.3a3.677,3.677,0,0,1,.43-1.459Q4.486,9.323,8.58,1.828A3.262,3.262,0,0,1,11.6,0a3.257,3.257,0,0,1,3.017,1.83q4.059,7.463,8.113,14.928A3.4,3.4,0,0,1,19.71,21.9c-2.706.021-5.412,0-8.118,0M10.236,9.636c0,.891-.007,1.782,0,2.673a1.36,1.36,0,1,0,2.716-.015q.012-2.65,0-5.3a1.361,1.361,0,1,0-2.717.015c-.007.876,0,1.752,0,2.627M11.613,15.1a2.027,2.027,0,0,0-2.053,2.028,2.037,2.037,0,0,0,4.073.032,2.024,2.024,0,0,0-2.02-2.06" transform="translate(0 0)" fill="#f04d4d"/>
  </g>
</svg>
