<svg id="Group_1772" data-name="Group 1772" xmlns="http://www.w3.org/2000/svg" xmlns:xlink="http://www.w3.org/1999/xlink" width="21.147" height="21.11" viewBox="0 0 21.147 21.11">
  <defs>
    <clipPath id="clip-path">
      <rect id="Rectangle_726" data-name="Rectangle 726" width="21.147" height="21.11" fill="#212327"/>
    </clipPath>
  </defs>
  <g id="Group_1755" data-name="Group 1755" clip-path="url(#clip-path)">
    <path id="Path_1394" data-name="Path 1394" d="M14.3,14.723c0,.888,0,1.732,0,2.576a1.355,1.355,0,0,1-1.519,1.506c-.973.005-.973.005-1.192.962-.034.148-.061.3-.1.445a1.158,1.158,0,0,1-.913.868,1.112,1.112,0,0,1-1.153-.4c-.4-.494-.793-1-1.162-1.515a.775.775,0,0,0-.717-.365c-2.007.017-4.014.01-6.022.007A1.338,1.338,0,0,1,0,17.3q0-3.654,0-7.309A1.343,1.343,0,0,1,1.493,8.5c1.952-.005,3.9,0,5.855,0h.44L7.85,8.4C7.632,8.193,7.4,8,7.2,7.789A5.07,5.07,0,0,1,7.76.239.967.967,0,0,1,9.084.288q1.558,1.525,3.082,3.084a.959.959,0,0,1-.036,1.413c-.364.378-.754.731-1.175,1.136.739.735,1.441,1.432,2.141,2.13s1.389,1.389,2.135,2.135c.354-.368.69-.731,1.041-1.08A1.028,1.028,0,0,1,17.9,9.1q1.43,1.418,2.848,2.848a1.015,1.015,0,0,1,.04,1.573,5.04,5.04,0,0,1-6.314,1.26c-.035-.017-.075-.025-.181-.059M1.349,17.474h.478c2.033,0,4.067.014,6.1-.01a1.226,1.226,0,0,1,1.148.575c.351.517.754,1,1.135,1.5.059-.051.075-.057.077-.067q.146-.626.29-1.252c.135-.587.318-.738.913-.742.479,0,.958,0,1.491,0,0-1.214.012-2.372-.011-3.531a.973.973,0,0,0-.245-.605Q11.134,11.7,9.5,10.11a1.022,1.022,0,0,0-.641-.266c-2.351-.019-4.7-.012-7.055-.012H1.349ZM11.012,4.055c-.467-.456-.9-.868-1.318-1.287s-.852-.862-1.273-1.288a3.644,3.644,0,0,0-.265,5.385c.908.932,1.838,1.843,2.759,2.763C12.04,10.754,13.155,11.891,14.3,13a3.6,3.6,0,0,0,5.3-.216l-2.568-2.541c.021-.012-.008,0-.027.016-.324.322-.646.646-.972.966a1.014,1.014,0,0,1-1.625.015Q12.157,9,9.915,6.747a1.015,1.015,0,0,1,0-1.624c.35-.352.709-.694,1.093-1.068" transform="translate(0 0)" fill="#212327"/>
    <path id="Path_1395" data-name="Path 1395" d="M33.394,135.023a.666.666,0,0,1-.642.669.651.651,0,0,1-.68-.624.667.667,0,0,1,.655-.7.686.686,0,0,1,.668.653" transform="translate(-29.406 -123.206)" fill="#212327"/>
  </g>
</svg>
