<svg xmlns="http://www.w3.org/2000/svg" xmlns:xlink="http://www.w3.org/1999/xlink" width="14.265" height="3.29" viewBox="0 0 14.265 3.29">
  <defs>
    <clipPath id="clip-path">
      <rect id="Rectangle_666" data-name="Rectangle 666" width="3.29" height="14.265" fill="#2e343d"/>
    </clipPath>
  </defs>
  <g id="Group_1590" data-name="Group 1590" transform="translate(14.265) rotate(90)">
    <g id="Group_1589" data-name="Group 1589" transform="translate(0 0)" clip-path="url(#clip-path)">
      <path id="Path_1348" data-name="Path 1348" d="M1.636,3.29A1.645,1.645,0,1,1,3.29,1.671,1.65,1.65,0,0,1,1.636,3.29" transform="translate(0 0)" fill="#2e343d"/>
      <path id="Path_1349" data-name="Path 1349" d="M3.29,1.644A1.645,1.645,0,1,1,1.661,0,1.649,1.649,0,0,1,3.29,1.644" transform="translate(0 5.487)" fill="#2e343d"/>
      <path id="Path_1350" data-name="Path 1350" d="M3.29,1.666A1.645,1.645,0,1,1,1.683,0,1.649,1.649,0,0,1,3.29,1.666" transform="translate(0 10.975)" fill="#2e343d"/>
    </g>
  </g>
</svg>
