<svg id="Group_1762" data-name="Group 1762" xmlns="http://www.w3.org/2000/svg" xmlns:xlink="http://www.w3.org/1999/xlink" width="21.331" height="21.339" viewBox="0 0 21.331 21.339">
  <defs>
    <clipPath id="clip-path">
      <rect id="Rectangle_734" data-name="Rectangle 734" width="21.331" height="21.339" fill="#212327"/>
    </clipPath>
  </defs>
  <g id="Group_1761" data-name="Group 1761" clip-path="url(#clip-path)">
    <path id="Path_1401" data-name="Path 1401" d="M9.691,4.894c0,1.227,0,2.454,0,3.681,0,.766-.348,1.117-1.108,1.118q-3.748.007-7.5,0A.959.959,0,0,1,0,8.6Q0,4.848,0,1.1A.957.957,0,0,1,1.088,0Q4.858,0,8.629,0a.948.948,0,0,1,1.06,1.072c.008,1.272,0,2.545,0,3.817M1.973,7.731H7.719V1.95H1.973Z" transform="translate(0 0)" fill="#212327"/>
    <path id="Path_1402" data-name="Path 1402" d="M137.729,4.846c0,1.242,0,2.484,0,3.726,0,.768-.347,1.119-1.105,1.121q-3.748.007-7.5,0A.958.958,0,0,1,128.042,8.6q-.007-3.749,0-7.5A.958.958,0,0,1,129.124,0q3.77-.008,7.54,0a.948.948,0,0,1,1.062,1.07c.008,1.257,0,2.514,0,3.772m-1.971-2.88h-5.746v5.78h5.746Z" transform="translate(-116.399 0)" fill="#212327"/>
    <path id="Path_1403" data-name="Path 1403" d="M4.8,137.781c-1.226,0-2.453,0-3.679,0-.764,0-1.115-.35-1.116-1.109Q0,132.944,0,129.218c0-.789.345-1.127,1.143-1.129q3.7-.005,7.4,0c.8,0,1.138.339,1.139,1.132q.006,3.726,0,7.452c0,.76-.352,1.1-1.12,1.106-1.257.005-2.514,0-3.77,0m2.944-7.72H1.967v5.747H7.744Z" transform="translate(-0.002 -116.444)" fill="#212327"/>
    <path id="Path_1404" data-name="Path 1404" d="M128.088,133a4.842,4.842,0,1,1,4.827,4.826A4.824,4.824,0,0,1,128.088,133m4.8,2.888a2.908,2.908,0,1,0-2.87-2.923,2.911,2.911,0,0,0,2.87,2.923" transform="translate(-116.444 -116.487)" fill="#212327"/>
  </g>
</svg>
