<svg xmlns="http://www.w3.org/2000/svg" xmlns:xlink="http://www.w3.org/1999/xlink" width="22.29" height="22.998" viewBox="0 0 22.29 22.998">
  <defs>
    <clipPath id="clip-path">
      <rect id="Rectangle_660" data-name="Rectangle 660" width="22.29" height="22.998" fill="#212327"/>
    </clipPath>
  </defs>
  <g id="Group_1583" data-name="Group 1583" clip-path="url(#clip-path)">
    <path id="Path_1344" data-name="Path 1344" d="M18.4,19.783c-.3-.1-.786-.255-1.259-.43-1.249-.462-1.951-.068-2.186,1.241-.05.28-.087.562-.137.841a1.791,1.791,0,0,1-1.848,1.557q-1.818.01-3.636,0A1.793,1.793,0,0,1,7.469,21.4c-.063-.369-.116-.739-.186-1.106A1.335,1.335,0,0,0,5.5,19.23c-.4.129-.782.3-1.178.433a1.755,1.755,0,0,1-2.174-.779q-.975-1.638-1.905-3.3a1.741,1.741,0,0,1,.4-2.236c.314-.278.652-.527.965-.805a1.331,1.331,0,0,0,.007-2.079c-.3-.269-.626-.511-.932-.775a1.757,1.757,0,0,1-.426-2.3q.92-1.644,1.883-3.264a1.754,1.754,0,0,1,2.17-.788c.382.129.753.291,1.135.421A1.343,1.343,0,0,0,7.289,2.666c.068-.368.12-.738.187-1.106A1.789,1.789,0,0,1,9.323,0q1.818-.01,3.636,0A1.79,1.79,0,0,1,14.821,1.6c.066.383.116.77.194,1.15a1.328,1.328,0,0,0,1.733,1.031c.413-.128.812-.3,1.222-.444a1.756,1.756,0,0,1,2.174.778q.976,1.638,1.9,3.3a1.743,1.743,0,0,1-.4,2.237c-.313.278-.651.527-.965.805a1.329,1.329,0,0,0-.006,2.079c.3.269.626.511.931.775a1.757,1.757,0,0,1,.426,2.3c-.613,1.1-1.245,2.182-1.881,3.265a1.862,1.862,0,0,1-1.753.9M1.808,8.28c.323.268.612.5.9.744A3.14,3.14,0,0,1,2.7,13.977c-.294.247-.589.493-.888.744l1.883,3.255c.391-.144.74-.273,1.089-.4a3.137,3.137,0,0,1,4.294,2.516c.059.363.125.725.186,1.075h3.792c.133-1.361.4-2.635,1.7-3.395,1.317-.77,2.566-.351,3.835.222l1.894-3.281c-.321-.266-.611-.5-.9-.743a3.137,3.137,0,0,1,.005-4.952l.89-.745L18.6,5.02c-.389.143-.737.274-1.087.4a3.14,3.14,0,0,1-4.3-2.515c-.06-.363-.125-.726-.186-1.078h-3.8c-.118,1.363-.4,2.633-1.69,3.394C6.223,5.995,4.973,5.57,3.7,5l-1.9,3.28" transform="translate(0 0.001)" fill="#212327"/>
    <path id="Path_1345" data-name="Path 1345" d="M83.754,83.242a4.422,4.422,0,1,1-4.418-4.417,4.412,4.412,0,0,1,4.418,4.417m-7.047-.053a2.625,2.625,0,1,0,2.674-2.565,2.616,2.616,0,0,0-2.674,2.565" transform="translate(-68.187 -71.751)" fill="#212327"/>
  </g>
</svg>
