<svg xmlns="http://www.w3.org/2000/svg" xmlns:xlink="http://www.w3.org/1999/xlink" width="24" height="24" viewBox="0 0 24 24">
  <defs>
    <clipPath id="clip-path">
      <rect id="Rectangle_690" data-name="Rectangle 690" width="24" height="24" transform="translate(0 0)" fill="#fff"/>
    </clipPath>
  </defs>
  <g id="Group_1654" data-name="Group 1654" transform="translate(0 0)" clip-path="url(#clip-path)">
    <path id="Path_1372" data-name="Path 1372" d="M3.35,15.627c0-.436,0-.8,0-1.163a1.981,1.981,0,0,1,2.165-2.18c1.672-.006,3.344,0,5.017,0h.6V9.49c-.933,0-1.851,0-2.768,0A2,2,0,0,1,6.145,7.255q0-2.561,0-5.121A1.961,1.961,0,0,1,8.258.007q3.736-.014,7.472,0a1.961,1.961,0,0,1,2.121,2.118q.009,2.639,0,5.278a1.961,1.961,0,0,1-2.1,2.086c-.953.006-1.906,0-2.887,0v2.766c.176.008.358.025.541.025,1.69,0,3.379,0,5.069,0a1.979,1.979,0,0,1,2.174,2.172c0,.364,0,.728,0,1.172.452,0,.862-.005,1.273,0a1.953,1.953,0,0,1,2.068,2.065q.024,2.116,0,4.233a1.955,1.955,0,0,1-2.077,2.062q-2.116.021-4.233,0a1.938,1.938,0,0,1-2.048-2.079q-.015-2.09,0-4.18a1.946,1.946,0,0,1,2.129-2.1c.379,0,.759,0,1.209,0,0-.479.023-.91-.015-1.335-.011-.118-.187-.256-.319-.319a1.041,1.041,0,0,0-.413-.016H5.784c-.758,0-.759,0-.759.743,0,.277,0,.555,0,.926.422,0,.814,0,1.205,0a1.952,1.952,0,0,1,2.138,2.144q.01,2.064,0,4.128a1.947,1.947,0,0,1-2.092,2.089q-2.09.018-4.181,0A1.964,1.964,0,0,1,.008,21.882q-.017-2.064,0-4.128a1.97,1.97,0,0,1,2.113-2.127c.38,0,.761,0,1.229,0m8.614-7.811c1.219,0,2.438-.01,3.656.006.389.005.57-.1.566-.528-.017-1.706-.013-3.413,0-5.119,0-.361-.14-.5-.494-.5q-3.683.009-7.365,0c-.387,0-.515.156-.512.533q.02,2.533,0,5.067c0,.409.139.553.547.547,1.2-.019,2.4-.007,3.6-.006m-7.748,14.5c.662,0,1.323-.009,1.985,0,.35.006.5-.124.5-.489q-.018-2.037,0-4.073c0-.339-.137-.461-.468-.459q-2.036.014-4.073,0c-.371,0-.483.164-.48.508q.014,2.011,0,4.021c0,.361.15.5.5.493.679-.012,1.358,0,2.037,0M17.3,19.8c0,.662.013,1.323-.005,1.984-.01.37.109.542.5.538,1.34-.013,2.681-.01,4.021,0,.355,0,.5-.14.5-.5q-.014-2.011,0-4.021c0-.348-.118-.506-.485-.5q-2.036.018-4.073,0c-.335,0-.469.129-.463.464.013.679,0,1.358,0,2.037" transform="translate(0 0)" fill="#fff"/>
  </g>
</svg>
